name Walk3.mot
datacolumns 19
datarows 12
range 2.49000000 2.54500000
endheader

                time	   L_ground_force_vx	   L_ground_force_vy	   L_ground_force_vz	   L_ground_force_px	   L_ground_force_py	   L_ground_force_pz	   R_ground_force_vx	   R_ground_force_vy	   R_ground_force_vz	   R_ground_force_px	   R_ground_force_py	   R_ground_force_pz	   L_ground_torque_x	   L_ground_torque_y	   L_ground_torque_z	   R_ground_torque_x	   R_ground_torque_y	   R_ground_torque_z	
          2.49000000	          0.00000000	          0.00000000	         -0.00000000	         -0.00000000	          0.00000000	         -0.00000000	          2.10194367	         15.54139270	          1.28608663	          0.13980840	          0.00000000	          0.04683879	          0.00000000	          0.00000000	          0.00000000	          0.00000000	         -0.00269330	          0.00000000	
          2.49500000	          0.00000000	          0.00000000	         -0.00000000	         -0.00000000	          0.00000000	         -0.00000000	          0.05129726	          7.18554275	          1.05166264	          0.10739836	          0.00000000	          0.03571999	          0.00000000	          0.00000000	          0.00000000	          0.00000000	          0.00047371	          0.00000000	
          2.50000000	          0.00000000	          0.00000000	         -0.00000000	         -0.00000000	          0.00000000	         -0.00000000	         -1.26779955	          1.25880849	          0.81815728	          0.07812052	          0.00000000	          0.02576470	          0.00000000	          0.00000000	          0.00000000	          0.00000000	          0.00246718	          0.00000000	
          2.50500000	          0.00000000	          0.00000000	         -0.00000000	         -0.00000000	          0.00000000	         -0.00000000	         -2.01344316	         -2.64144790	          0.60370846	          0.05316682	          0.00000000	          0.01734288	          0.00000000	          0.00000000	          0.00000000	          0.00000000	          0.00355044	          0.00000000	
          2.51000000	          0.00000000	          0.00000000	         -0.00000000	         -0.00000000	          0.00000000	         -0.00000000	         -2.33237096	         -4.93370018	          0.41844055	          0.03295965	          0.00000000	          0.01057053	          0.00000000	          0.00000000	          0.00000000	          0.00000000	          0.00396431	          0.00000000	
          2.51500000	          0.00000000	          0.00000000	         -0.00000000	         -0.00000000	          0.00000000	         -0.00000000	         -2.35243084	         -6.01348114	          0.26653824	          0.01739447	          0.00000000	          0.00539154	          0.00000000	          0.00000000	          0.00000000	          0.00000000	          0.00391619	          0.00000000	
          2.52000000	         -0.00000000	         -0.00000000	         -0.00000000	         -0.00000000	          0.00000000	         -0.00000000	         -2.17924601	         -6.23033010	          0.14804628	          0.00603713	          0.00000000	          0.00164396	          0.00000000	          0.00000000	          0.00000000	          0.00000000	          0.00357561	          0.00000000	
          2.52500000	         -0.00000000	         -0.00000000	         -0.00000000	         -0.00000000	          0.00000000	         -0.00000000	         -1.89583393	         -5.87664736	          0.06035101	         -0.00172358	          0.00000000	         -0.00088932	          0.00000000	          0.00000000	          0.00000000	          0.00000000	          0.00307441	          0.00000000	
          2.53000000	         -0.00000000	         -0.00000000	         -0.00000000	         -0.00000000	          0.00000000	         -0.00000000	         -1.56414971	         -5.18506572	         -0.00065930	         -0.00656406	          0.00000000	         -0.00244352	          0.00000000	          0.00000000	          0.00000000	          0.00000000	          0.00250985	          0.00000000	
          2.53500000	         -0.00000000	         -0.00000000	         -0.00000000	         -0.00000000	          0.00000000	         -0.00000000	         -1.22774172	         -4.33149180	         -0.03973189	         -0.00914902	          0.00000000	         -0.00324695	          0.00000000	          0.00000000	          0.00000000	          0.00000000	          0.00194932	          0.00000000	
          2.54000000	         -0.00000000	         -0.00000000	         -0.00000000	         -0.00000000	          0.00000000	         -0.00000000	         -0.91491026	         -3.44154276	         -0.06164607	         -0.01008314	          0.00000000	         -0.00350538	          0.00000000	          0.00000000	          0.00000000	          0.00000000	          0.00143569	          0.00000000	
          2.54500000	         -0.00000000	         -0.00000000	         -0.00000000	          0.00000000	          0.00000000	          0.00000000	         -0.64193917	         -2.59865126	         -0.07082375	         -0.00988471	          0.00000000	         -0.00339387	          0.00000000	         -0.00000000	          0.00000000	          0.00000000	          0.00099276	          0.00000000	
